<?xml version="1.0" encoding="UTF-8"?>
<svg xmlns="http://www.w3.org/2000/svg" width="96" height="96" viewBox="0 0 96 96">
  <g fill="none" stroke="#c9a24a" stroke-linejoin="round" stroke-linecap="square">
    <rect x="1.4" y="1.4" width="93.2" height="93.2" stroke-width="2.4"/>
    <rect x="6" y="6" width="84" height="84" stroke-width="0.8" opacity="0.7"/>
    <rect x="26.5" y="26.5" width="43" height="43" stroke-width="1.15"/>
    <g stroke-width="1.05" opacity="0.9">
      
    <polygon points="55.39,19.06 51.06,23.39 44.94,23.39 40.61,19.06 40.61,12.94 44.94,8.61 51.06,8.61 55.39,12.94"/>
    <polygon points="51.51,19.51 44.49,19.51 44.49,12.49 51.51,12.49"/>
      
    <polygon points="23.39,51.06 19.06,55.39 12.94,55.39 8.61,51.06 8.61,44.94 12.94,40.61 19.06,40.61 23.39,44.94"/>
    <polygon points="19.51,51.51 12.49,51.51 12.49,44.49 19.51,44.49"/>
      
    <polygon points="87.39,51.06 83.06,55.39 76.94,55.39 72.61,51.06 72.61,44.94 76.94,40.61 83.06,40.61 87.39,44.94"/>
    <polygon points="83.51,51.51 76.49,51.51 76.49,44.49 83.51,44.49"/>
      
    <polygon points="55.39,83.06 51.06,87.39 44.94,87.39 40.61,83.06 40.61,76.94 44.94,72.61 51.06,72.61 55.39,76.94"/>
    <polygon points="51.51,83.51 44.49,83.51 44.49,76.49 51.51,76.49"/>
    </g>
    <path stroke-width="1.5" d="M5 28 V5 H28"/>
    <path stroke-width="1.5" d="M68 5 H91 V28"/>
    <path stroke-width="1.5" d="M91 68 V91 H68"/>
    <path stroke-width="1.5" d="M28 91 H5 V68"/>
  </g>
</svg>
